<?xml version="1.0" encoding="UTF-8"?>
<svg id="Layer_1" xmlns="http://www.w3.org/2000/svg" version="1.1" viewBox="0 0 512 512">
  <!-- Generator: Adobe Illustrator 29.2.1, SVG Export Plug-In . SVG Version: 2.1.0 Build 116)  -->
  <defs>
    <style>
      .st0 {
        fill: #fff;
      }
    </style>
  </defs>
  <path class="st0" d="M464,256c0-114.9-93.1-208-208-208S48,141.1,48,256s93.1,208,208,208,208-93.1,208-208ZM0,256C0,114.6,114.6,0,256,0s256,114.6,256,256-114.6,256-256,256S0,397.4,0,256ZM306.7,325.1l-144.3,55.5c-19.4,7.5-38.5-11.6-31-31l55.5-144.3c3.3-8.5,9.9-15.1,18.4-18.4l144.3-55.5c19.4-7.5,38.5,11.6,31,31l-55.5,144.3c-3.2,8.5-9.9,15.1-18.4,18.4ZM288,256c0-17.7-14.3-32-32-32s-32,14.3-32,32,14.3,32,32,32,32-14.3,32-32Z"/>
</svg>