<?xml version="1.0" encoding="UTF-8"?>
<svg id="Capa_1" data-name="Capa 1" xmlns="http://www.w3.org/2000/svg" viewBox="0 0 799.97 799.98">
  <defs>
    <style>
      .cls-1 {
        fill: #fff;
      }
    </style>
  </defs>
  <path class="cls-1" d="M726.46,169.36c-6.09-8.6-12.44-16.98-19.2-25.06C633.84,56.19,523.35,0,399.99,0c-.23,0-.41.02-.61.02-.13,0-.23-.02-.36-.02-.44,0-.9.05-1.38.05-122.42.71-231.95,56.73-304.94,144.25-6.73,8.09-13.11,16.46-19.2,25.06C27.29,234.59,0,314.13,0,399.99s27.27,165.42,73.5,230.63c6.09,8.6,12.47,16.98,19.2,25.06,72.98,87.52,182.5,143.54,304.94,144.25.48,0,.94.05,1.38.05.13,0,.23-.02.34-.02.2,0,.38.02.61.02,123.37,0,233.85-56.17,307.29-144.28,6.73-8.07,13.11-16.48,19.2-25.08,46.21-65.23,73.5-144.77,73.5-230.65,0-85.83-27.29-165.39-73.5-230.62ZM283.07,52.02c-36.76,35.46-67.32,87.3-88.37,149.52-28.21-10.54-53.6-23.22-75.49-37.56,42.91-50.97,99.35-90.23,163.86-111.95ZM99.94,189.07c24.88,16.61,53.63,31.13,85.42,43.09-13.72,50.12-21.6,105.75-21.89,164.45H32.89c.71-77.21,25.57-148.66,67.05-207.54ZM34.12,429.43h129.99c2.12,49.13,9.58,95.76,21.22,138.41-31.8,11.96-60.54,26.49-85.38,43.11-36.78-52.2-60.49-114.27-65.82-181.52ZM119.31,635.94c21.89-14.31,47.21-26.96,75.36-37.5,21.05,62.23,51.63,114.04,88.4,149.5-64.51-21.71-120.83-61.05-163.76-112ZM383.58,765.98c-67.35-9.22-125.48-78.29-158.43-177.78,47.51-14.24,101.29-22.88,158.43-24.27v202.05ZM383.58,531.15c-60.26,1.44-117.06,10.75-167.63,26.27-10.36-39.32-16.98-82.46-18.97-127.97h186.6v101.7ZM383.58,396.61h-187.29c.3-55.12,7.47-107.19,19.81-154,50.51,15.48,107.28,24.8,167.47,26.22v127.77h.02ZM383.58,236.05c-57.11-1.39-110.87-9.99-158.33-24.24,32.94-99.43,91.01-168.57,158.33-177.81v202.05ZM767.05,396.61h-132.47c-.3-58.45-8.07-113.86-21.69-163.79,32.49-12.08,61.85-26.83,87.14-43.73,41.47,58.88,66.32,130.32,67.02,207.53ZM680.73,164.01c-22.33,14.62-48.3,27.5-77.18,38.15-21.25-63.07-52.25-115.53-89.59-151.13,65.71,21.51,123.18,61.21,166.76,112.97ZM416.4,34.25c66.61,10.29,123.98,79.3,156.57,178.05-47.02,13.93-100.17,22.37-156.57,23.75V34.25ZM416.4,268.85c59.49-1.41,115.61-10.54,165.68-25.68,12.28,46.67,19.4,98.55,19.68,153.46h-185.36v-127.77ZM416.4,429.43h184.68c-1.99,45.29-8.58,88.24-18.84,127.44-50.13-15.2-106.32-24.3-165.81-25.73l-.03-101.71h0ZM416.4,765.73v-201.78c56.44,1.38,109.59,9.81,156.67,23.75-32.64,98.79-90.08,167.75-156.67,178.04ZM513.96,748.96c37.33-35.58,68.4-88.01,89.65-151.09,28.82,10.63,54.75,23.5,77.05,38.09-43.59,51.74-100.99,91.47-166.7,113ZM700.03,610.95c-25.29-16.9-54.65-31.69-87.16-43.75,11.52-42.47,18.92-88.88,21.01-137.75h131.96c-5.33,67.23-28.98,129.32-65.81,181.5Z"/>
</svg>