<?xml version="1.0" encoding="UTF-8"?>
<svg id="Layer_1" data-name="Layer 1" xmlns="http://www.w3.org/2000/svg" viewBox="0 0 215.68 223.95">
  <defs>
    <style>
      .cls-1 {
        fill: #fff;
      }
    </style>
  </defs>
  <g id="_0TvwFV.tif" data-name="0TvwFV.tif">
    <g>
      <path class="cls-1" d="M69.95,223.95c-.8-.23-10.07-9.14-10.27-11.3l15.81-45.01c-25.14-15.61-49.67-45.5-19.98-70.68C32.22,88.24,7.94,74.88,1.48,48.73-3.98,26.62,5.71,4.14,29.59.4c22.01-3.45,43.59,15.97,38.64,38.31l-6.75.76c-2.06-1.23-2.6-10.72-3.93-14.06C46.6-2.11,1.78,8.77,11.44,45.73c7.04,26.93,33.58,37.22,57.8,43.94,29.69,8.23,60.58,11.71,90.43,19.28l1.2-.13c3.89-4.55,15.82-21.56,20.8-22.67,6.95-1.55,22.19,9.98,30.11,10.85l-2.8,10.25,6.69,5.31c.15.63-2.49,8.33-3.15,9.12-2.61,3.13-11.96,4.54-14.38,6.54-1.87,1.56-8.2,12.46-12.2,16.25-13.16,12.49-28.61,13.41-39.05,30.78-6.1,10.16-8.98,25.58-14.74,36.3-.21,3.91,9.61,7.52,9.98,12.41h-16.43c-2.46-3.81-6.62-7.68-6.51-12.45l10.99-48.55c-15.27-.63-29.11-8.8-40.8-18.01,1.59,7.81,10.91,16.24,9.92,24.41-.26,2.18-2.68,6.08-3.79,8.27-5.27,10.31-15.56,23.34-19.53,33.38-.4,1.02-.79,1.76-.54,2.94,7.86-.85,15.63,1.74,17.91,10.01h-23.39Z"/>
      <path class="cls-1" d="M13.71,223.95c-.28-9.74-4.5-21.29-4.91-30.66-.07-1.7,0-2.48.68-4.08,2.74-6.37,29.33-19.02,35.8-24.53l2.28-10.73,18.89,16.5-43.88,28.99,1.52,13.58c7.72,1.34,14.18,3.11,17.49,10.93H13.71Z"/>
      <path class="cls-1" d="M192.4,223.95c-1.43-.41-8.56-9.39-9.66-11.3-3.18-5.55-17.24-37.42-17.63-42.33-.13-1.68-.62-3.65.91-4.88l15.42-7.5c1.78,19.01,8.84,36.88,13.43,55.28,5.51,2.83,11.53,4.08,13.95,10.73h-16.43Z"/>
    </g>
  </g>
</svg>