<?xml version="1.0" encoding="UTF-8"?>
<svg id="Layer_2" xmlns="http://www.w3.org/2000/svg" version="1.1" viewBox="0 0 800 800">
  <!-- Generator: Adobe Illustrator 30.4.0, SVG Export Plug-In . SVG Version: 2.1.4 Build 226)  -->
  <defs>
    <style>
      .st0 {
        fill: #fff;
      }
    </style>
  </defs>
  <g id="Layer_1-2">
    <g id="SVGRepo_iconCarrier">
      <path class="st0" d="M274.2,22c-55.2,0-100,44.8-100,100v50c0,55.2,44.8,100,100,100s100-44.8,100-100v-50c0-55.2-44.8-100-100-100h0Z"/>
      <path class="st0" d="M524.3,22c-55.2,0-100,44.8-100,100v50c0,55.2,44.8,100,100,100s100-44.8,100-100v-50c0-55.2-44.8-100-100-100h0Z"/>
      <path class="st0" d="M124.1,272.1c-55.2,0-100,44.8-100,100v25c0,55.2,44.8,100,100,100s100-44.8,100-100v-25c0-55.2-44.8-100-100-100h0Z"/>
      <path class="st0" d="M674.3,272.1c-55.2,0-100,44.8-100,100v25c0,55.2,44.8,100,100,100s100-44.8,100-100v-25c0-55.2-44.8-100-100-100h0Z"/>
      <path class="st0" d="M504.9,411.1c-54.8-66.5-156.6-66.5-211.4,0l-146,177.2c-60.4,73.4-8.2,184,86.8,184s27-3.2,39.1-9.2l18-9c67.8-33.9,147.6-33.9,215.4,0l18,9c12.1,6.1,25.5,9.2,39.1,9.2,95.1,0,147.2-110.6,86.8-184l-146-177.2h0Z"/>
    </g>
  </g>
</svg>