<?xml version="1.0" encoding="UTF-8"?>
<svg id="Layer_1" data-name="Layer 1" xmlns="http://www.w3.org/2000/svg" viewBox="0 0 191.57 199.56">
  <defs>
    <style>
      .cls-1 {
        fill: #fff;
      }
    </style>
  </defs>
  <g id="p5Eiak.tif">
    <g>
      <path class="cls-1" d="M190.52,197.61l-3.31,1.18-44.1-16.65-47,17.43-47-17.43-42.31,16.32c-9.01,1.27-6.97-4.63-5.52-10.6,6.65-27.46,16.99-55.19,24.46-82.53l37.6-22.46c1.85-.39,3.5.26,5.25.68,6.85,1.66,21.38,10.74,26.83,11.02,1.7.09,12.1-4.27,12.32-5.27-9.85-24.54-26.14-49.5-5.95-73.92,28.09-33.98,84.61-7.19,74.11,37.11-3.89,16.42-12.66,31.33-19.06,46.77l10,8.03,24.74,87.85-1.06,2.47ZM133.78,120.85c2.62-2.51,4.76-6.75,6.51-9.98,8.54-15.7,29.19-55.8,27.37-72.42-3.11-28.43-40.71-38.94-58.87-16.08-11.71,14.74-6.47,28.83-.51,44.46,7.09,18.61,17.88,35.66,25.5,54.01ZM90.77,102.85l-21.99-9-14.1,77.51,1.09,2.99,35,13.49v-85ZM57.76,97.86l-24.04,13.71-21.96,74.27,32.47-13.02,13.53-74.96ZM100.77,187.85l35-13.49,1.09-2.99c-2.98-11.51-3.19-26.45-6.58-37.53-1.28-4.2-14.08-29.95-16.63-33.36-.65-.87-1.02-1.73-2.34-1.63l-10.54,4.01v85ZM157.48,111.13l-5.69-3.28-11.85,24.75,7.05,39.53c.28,1.16,1.17,1.42,2.05,1.95,7.91,4.78,22.03,7.56,30.73,11.76l-22.29-74.71Z"/>
      <path class="cls-1" d="M134.43,21.24c28.44-.47,28.58,43.72-.17,43.4-27.23-.3-28.33-42.92.17-43.4ZM132.52,31.07c-14.41,2.37-11.91,25.21,3.62,23.73,15.45-1.47,12.74-26.43-3.62-23.73Z"/>
    </g>
  </g>
</svg>