<?xml version="1.0" encoding="UTF-8"?>
<svg id="Layer_2" data-name="Layer 2" xmlns="http://www.w3.org/2000/svg" viewBox="0 0 544 511.92">
  <defs>
    <style>
      .cls-1 {
        fill: #fff;
      }
    </style>
  </defs>
  <g id="Layer_1-2" data-name="Layer 1">
    <path class="cls-1" d="M234.7,42.7l-37.7,14.1c-3,1.1-5,4-5,7.2s2,6.1,5,7.2l37.7,14.1,14.1,37.7c1.1,3,4,5,7.2,5s6.1-2,7.2-5l14.1-37.7,37.7-14.1c3-1.1,5-4,5-7.2s-2-6.1-5-7.2l-37.7-14.1-14.1-37.7c-1.1-3-4-5-7.2-5s-6.1,2-7.2,5c0,0-14.1,37.7-14.1,37.7ZM46.1,395.4c-18.7,18.7-18.7,49.1,0,67.9l34.6,34.6c18.7,18.7,49.1,18.7,67.9,0L529.9,116.5c18.7-18.7,18.7-49.1,0-67.9l-34.6-34.5c-18.7-18.7-49.1-18.7-67.9,0L46.1,395.4ZM484.6,82.6l-105,105-23.3-23.3,105-105s23.3,23.3,23.3,23.3ZM7.5,117.2c-4.5,1.7-7.5,6-7.5,10.8s3,9.1,7.5,10.8l56.5,21.2,21.2,56.5c1.7,4.5,6,7.5,10.8,7.5s9.1-3,10.8-7.5l21.2-56.5,56.5-21.2c4.5-1.7,7.5-6,7.5-10.8s-3-9.1-7.5-10.8l-56.5-21.2-21.2-56.5c-1.7-4.5-6-7.5-10.8-7.5s-9.1,3-10.8,7.5l-21.2,56.5L7.5,117.2ZM359.5,373.2c-4.5,1.7-7.5,6-7.5,10.8s3,9.1,7.5,10.8l56.5,21.2,21.2,56.5c1.7,4.5,6,7.5,10.8,7.5s9.1-3,10.8-7.5l21.2-56.5,56.5-21.2c4.5-1.7,7.5-6,7.5-10.8s-3-9.1-7.5-10.8l-56.5-21.2-21.2-56.5c-1.7-4.5-6-7.5-10.8-7.5s-9.1,3-10.8,7.5l-21.2,56.5-56.5,21.2Z"/>
  </g>
</svg>