<?xml version="1.0" encoding="UTF-8"?>
<svg id="Layer_2" data-name="Layer 2" xmlns="http://www.w3.org/2000/svg" viewBox="0 0 512 512">
  <defs>
    <style>
      .cls-1 {
        fill: #fff;
      }
    </style>
  </defs>
  <g id="Layer_1-2" data-name="Layer 1">
    <path class="cls-1" d="M464,256c0-114.9-93.1-208-208-208S48,141.1,48,256s93.1,208,208,208,208-93.1,208-208ZM0,256C0,114.6,114.6,0,256,0s256,114.6,256,256-114.6,256-256,256S0,397.4,0,256ZM306.7,325.1l-144.3,55.5c-19.4,7.5-38.5-11.6-31-31l55.5-144.3c3.3-8.5,9.9-15.1,18.4-18.4l144.3-55.5c19.4-7.5,38.5,11.6,31,31l-55.5,144.3c-3.2,8.5-9.9,15.1-18.4,18.4ZM288,256c0-17.7-14.3-32-32-32s-32,14.3-32,32,14.3,32,32,32,32-14.3,32-32Z"/>
  </g>
</svg>