<?xml version="1.0" encoding="UTF-8"?>
<svg id="Layer_2" data-name="Layer 2" xmlns="http://www.w3.org/2000/svg" viewBox="0 0 113.66 229.45">
  <defs>
    <style>
      .cls-1 {
        fill: #fff;
      }
    </style>
  </defs>
  <g id="Layer_1-2" data-name="Layer 1">
    <path class="cls-1" d="M23.53,229.45c-4.33,0-8.03-3.29-8.45-7.69-1.28-13.4-.55-25.73,2.18-36.89C7.46,176.81,1.02,164.67.11,153.24c-.46-5.82.52-11.66,3.09-18.35,6.05-15.78,16.04-23.27,27.6-31.95,1.06-.8,2.13-1.6,3.21-2.42-5.1-14.12-9.76-31.57-.08-46.55,9.07-14.03,29.6-24.04,49.14-18.37,2.47-8.67,3.75-17.77,3.81-27.16.03-4.69,3.87-8.43,8.56-8.44,4.69.03,8.47,3.86,8.44,8.56-.08,12.24-1.95,24.09-5.55,35.31,12.24,10.53,16.9,27.16,14.88,40.54-1.89,12.48-9.39,20.4-15.43,26.75-10.82,11.41-19.56,20.2-26.63,27.19,6.46,14.59,9.59,24.66,5.45,34.74-5.87,14.31-21.9,20.95-34.3,21.06-3.26.02-6.39-.38-9.4-1.16-1.53,8.25-1.84,17.32-.9,27.15.45,4.67-2.98,8.82-7.65,9.27-.27.03-.55.04-.82.04ZM37.99,176.73c1.36.29,2.73.44,4.15.43,7.11-.06,16.05-4.01,18.72-10.51,1.33-3.24.22-8.07-2.76-15.48-8.85,8.72-13.47,13.66-17.43,20.43-.97,1.66-1.86,3.37-2.68,5.13ZM40.9,116.61c-10.56,7.92-17.54,13.18-21.82,24.36-2.14,5.58-2.17,8.9-2.01,10.92.42,5.24,2.86,10.85,6.59,15.44.74-1.47,1.52-2.91,2.35-4.33,5.73-9.8,12.51-16.47,24.74-28.44-3.48-7.45-5.72-11.11-7.71-14.37-.74-1.21-1.44-2.36-2.14-3.59ZM54.47,105.94c.95,1.92,1.9,3.47,3.08,5.41,1.6,2.62,3.47,5.69,5.97,10.62,6.13-6.13,13.37-13.5,21.93-22.51,5.96-6.28,9.94-10.9,10.95-17.59.98-6.5-.68-14.52-5.21-20.78-11.1,21.6-26.73,35.88-32.4,41.05-1.47,1.34-2.91,2.6-4.32,3.81ZM71.49,50.98c-9.52,0-18.77,5.24-23.28,12.21-4.55,7.04-3.13,16.36-.19,25.75,6.14-5.62,19.67-18.38,28.92-37.36-1.81-.41-3.63-.6-5.45-.6Z"/>
  </g>
</svg>