<?xml version="1.0" encoding="UTF-8"?>
<svg id="Layer_2" data-name="Layer 2" xmlns="http://www.w3.org/2000/svg" viewBox="0 0 113.65 229.45">
  <defs>
    <style>
      .cls-1 {
        fill: none;
        stroke: #fff;
        stroke-linecap: round;
        stroke-miterlimit: 10;
        stroke-width: 17px;
      }
    </style>
  </defs>
  <g id="Layer_1-2" data-name="Layer 1">
    <path class="cls-1" d="M95.38,8.5c-.06,9.33-1.25,23.22-7.18,38.53-9.83,25.38-27.84,42.16-35.14,48.83-19.33,17.66-34.3,22.2-41.92,42.07-2.58,6.72-2.82,11.29-2.55,14.64,1.22,15.35,15.24,33.25,33.64,33.09,10.27-.09,22.41-5.81,26.51-15.79,3.52-8.57-.85-18.38-9.72-37.65-8.02-17.42-10.37-16.99-14.67-28.34-5.34-14.09-12.12-31.6-3.27-45.29,8.19-12.68,27.67-20.81,44.26-13.07,15.73,7.33,21.37,25.02,19.46,37.63-1.46,9.64-7.27,15.93-13.19,22.17-38.24,40.3-49.58,47.12-58.27,61.99-6.27,10.72-12.29,27.54-9.8,53.65"/>
  </g>
</svg>