<?xml version="1.0" encoding="UTF-8"?>
<svg id="Layer_1" data-name="Layer 1" xmlns="http://www.w3.org/2000/svg" viewBox="0 0 179.9 180.12">
  <defs>
    <style>
      .cls-1 {
        fill: #fff;
      }
    </style>
  </defs>
  <path class="cls-1" d="M109.98,70.01h24.5c.17,0,1.76,1.54,1.98,2.02.95,2.04.94,33.95,0,35.97-.22.47-1.81,2.02-1.98,2.02h-24.5v24.5c0,.17-1.54,1.76-2.02,1.98-2.04.95-34.44.95-35.98.01-.51-.64-2-2.52-2-3v-23.5h-23.5c-.28,0-2.73-1.55-3-2v-36c.27-.45,2.72-2,3-2h23.5v-23.5c0-.48,1.49-2.36,2-3,1.54-.94,33.94-.94,35.98.01.47.22,2.02,1.81,2.02,1.98v24.5Z"/>
  <path class="cls-1" d="M15.66,40.14c4.21-2.21,13.15,7.01,13.1,10.18-.04,2.47-5.02,10.41-6.26,13.7-5.57,14.82-6.22,31.48-1.78,46.74,2.01,6.9,6.03,12.76,8.05,19.61-12.29,16.72-16.31,8.56-22.28-6.38C-4.32,96.92-1.88,63.75,15.66,40.14Z"/>
  <path class="cls-1" d="M129.49,151.36c12.27,8.88,15.56,11.75.71,19.36-24.71,12.67-56.54,12.44-81.26-.17-2.5-1.28-8.62-4.48-8.99-7.1-1.09-3.1,7.42-11.16,9.59-11.47,3.24-.46,12.34,5.1,16.48,6.49,21.31,7.13,44.09,3.87,63.46-7.11Z"/>
  <path class="cls-1" d="M160.7,40.18c5.21-1.55,8.17,5.46,10.16,9.45,12.44,24.93,12.89,64.64-4.03,87.72-5.19,7.07-14.9-4.17-14.93-7.82-.02-2.47,6.1-14.33,7.35-18.76,4.12-14.61,4.01-30.34-.8-44.72-1.39-4.14-6.95-13.25-6.49-16.48.23-1.59,7.23-8.93,8.75-9.38Z"/>
  <path class="cls-1" d="M41.28,14.29c1.15-1.38,9.75-5.46,12.03-6.46,24.36-10.64,52.28-10.57,76.36.99,3.24,1.55,10.43,4.91,10.42,8.69-.01,2.57-7.25,10.19-9.66,10.53-3.48.5-8.08-3.19-11.48-4.5-23.65-9.12-46.35-7.23-68.48,5.08-4.22-2.43-13.59-9.04-9.18-14.33Z"/>
</svg>